<svg xmlns="http://www.w3.org/2000/svg" viewBox="0 0 64 64" fill="none">
  <!-- Background circle -->
  <circle cx="32" cy="32" r="32" fill="#f59e0b"/>

  <!-- Cloud -->
  <path d="M14 42 C14 42 9 42 7 38 C5 34 8 30 12 29 C11 25 13 21 18 20 C20 16 25 13 32 13 C39 13 44 16 46 20 C51 21 54 25 53 29 C56 30 59 34 57 38 C55 42 50 42 50 42 Z"
        fill="white"/>

  <!-- Star spark -->
  <path d="M36 9 L38 3 L40 9 L46 11 L40 13 L38 19 L36 13 L30 11 Z"
        fill="white"/>

  <!-- Small star -->
  <path d="M21 15 L22.2 11 L23.4 15 L27.4 16.2 L23.4 17.4 L22.2 21.4 L21 17.4 L17 16.2 Z"
        fill="white" opacity="0.8"/>
</svg>
