<svg xmlns="http://www.w3.org/2000/svg" viewBox="0 0 40 36" fill="none">
  <!-- Cloud -->
  <path d="M8 28 C8 28 4 28 3 24 C2 20 4 18 7 17.5 C6.5 15 8 12 11 11.5 C12 8 15 6 19 6 C23 6 26 8 27 11.5 C30 12 32 15 31.5 17.5 C34 18 36 20 35 24 C34 28 30 28 30 28 Z"
        fill="white" stroke="#d6d3d1" stroke-width="1"/>
  <!-- Star 1 small -->
  <path d="M12 8 L13 5 L14 8 L17 9 L14 10 L13 13 L12 10 L9 9 Z" fill="#f59e0b" opacity="0.75">
    <animate attributeName="opacity" values="0.7;1;0.7" dur="2s" repeatCount="indefinite"/>
  </path>
  <!-- Star 2 big -->
  <path d="M19 4 L20.5 0 L22 4 L26 5 L22 6 L20.5 10 L19 6 L15 5 Z" fill="#f59e0b">
    <animate attributeName="opacity" values="0.9;1;0.9" dur="1.5s" repeatCount="indefinite"/>
  </path>
  <!-- Star 3 medium -->
  <path d="M27 7 L28.5 3 L30 7 L34 8.5 L30 10 L28.5 14 L27 10 L23 8.5 Z" fill="#f59e0b" opacity="0.8">
    <animate attributeName="opacity" values="0.8;1;0.8" dur="1.8s" repeatCount="indefinite"/>
  </path>
</svg>
